<?xml version="1.0" encoding="UTF-8"?>
<svg xmlns="http://www.w3.org/2000/svg" xmlns:xlink="http://www.w3.org/1999/xlink" width="16pt" height="16pt" viewBox="0 0 16 16" version="1.1">
<defs>
<clipPath id="clip1">
  <rect x="0" y="0" width="16" height="16"/>
</clipPath>
<g id="surface5" clip-path="url(#clip1)">
<path style="fill:none;stroke-width:3.090486;stroke-linecap:round;stroke-linejoin:round;stroke:rgb(6.666667%,37.254902%,53.72549%);stroke-opacity:1;stroke-miterlimit:4;" d="M 159.0452 418.942955 L 281.349888 418.86483 L 315.9202 575.73983 L 159.0452 575.73983 Z M 159.0452 418.942955 " transform="matrix(0.1,0,0,0.1,-15.74827,-41.730233)"/>
<path style=" stroke:none;fill-rule:nonzero;fill:rgb(6.666667%,37.254902%,53.72549%);fill-opacity:1;" d="M 12.023438 14.960938 L 1.972656 14.960938 L 1.972656 11.890625 L 12.023438 11.890625 L 12.023438 14.960938 M 12.023438 11.101562 L 9.503906 11.101562 L 9.503906 8.4375 L 12.023438 8.4375 L 12.023438 11.101562 "/>
<path style=" stroke:none;fill-rule:nonzero;fill:rgb(6.666667%,37.254902%,53.72549%);fill-opacity:1;" d="M 1.972656 11.097656 L 1.972656 1.0625 L 5.039062 1.0625 L 5.039062 8.320312 C 4.394531 8.222656 3.820312 7.949219 3.3125 7.5 L 2.765625 8.058594 C 3.445312 8.664062 4.203125 9 5.039062 9.066406 L 5.039062 11.097656 L 1.972656 11.097656 M 5.832031 8.363281 L 5.832031 1.0625 C 6.78125 1.109375 7.59375 1.488281 8.265625 2.199219 C 8.945312 2.898438 9.285156 3.726562 9.285156 4.675781 C 9.285156 5.664062 8.945312 6.515625 8.265625 7.226562 C 7.59375 7.933594 6.78125 8.3125 5.832031 8.363281 "/>
<path style=" stroke:none;fill-rule:nonzero;fill:rgb(100%,20%,0%);fill-opacity:1;" d="M 9.480469 7.472656 L 9.480469 4.945312 L 10.433594 7.472656 L 9.480469 7.472656 M 9.742188 4.808594 L 10.847656 4.808594 L 11.804688 7.472656 L 10.722656 7.472656 L 9.742188 4.808594 M 11.128906 4.808594 L 12.027344 4.808594 L 12.027344 7.25 L 11.128906 4.808594 "/>
</g>
</defs>
<g id="surface1">
<use xlink:href="#surface5"/>
</g>
</svg>
